<mxfile host="65bd71144e">
    <diagram id="mHrCDbUPQbT_21aBiKJM" name="PÃ¡gina-1">
        <mxGraphModel dx="1390" dy="1630" grid="1" gridSize="10" guides="1" tooltips="1" connect="1" arrows="1" fold="1" page="1" pageScale="1" pageWidth="827" pageHeight="1169" math="0" shadow="0">
            <root>
                <mxCell id="0"/>
                <mxCell id="1" parent="0"/>
                <mxCell id="4" style="edgeStyle=none;html=1;exitX=0.5;exitY=1;exitDx=0;exitDy=0;entryX=0.5;entryY=0;entryDx=0;entryDy=0;" parent="1" source="2" target="3" edge="1">
                    <mxGeometry relative="1" as="geometry"/>
                </mxCell>
                <mxCell id="2" value="&lt;font style=&quot;font-size: 29px;&quot;&gt;inicio&lt;/font&gt;" style="ellipse;whiteSpace=wrap;html=1;fillColor=#6a00ff;fontColor=#ffffff;strokeColor=#3700CC;" parent="1" vertex="1">
                    <mxGeometry x="320" y="-290" width="160" height="120" as="geometry"/>
                </mxCell>
                <mxCell id="3" value="&lt;font style=&quot;&quot;&gt;&lt;span style=&quot;font-size: 19px;&quot;&gt;Minicalculadora guanentina&lt;/span&gt;&lt;br&gt;&lt;span style=&quot;font-size: 19px;&quot;&gt;&lt;font color=&quot;#000000&quot;&gt;-------------------------------------------------&amp;nbsp;&lt;/font&gt;&lt;/span&gt;&lt;br&gt;&lt;span style=&quot;font-size: 19px;&quot;&gt;&amp;nbsp; 1-- sumar (x+y)&lt;br&gt;&lt;/span&gt;&lt;span style=&quot;font-size: 19px;&quot;&gt;2-- restar (x-y)&lt;/span&gt;&lt;br&gt;&lt;span style=&quot;font-size: 19px;&quot;&gt;&amp;nbsp; &amp;nbsp; &amp;nbsp; &amp;nbsp;3-- multiplicar (x*y)&lt;br&gt;&lt;/span&gt;&lt;span style=&quot;font-size: 19px;&quot;&gt;&amp;nbsp; &amp;nbsp;4-- division (x/y)&lt;/span&gt;&lt;br&gt;&lt;div style=&quot;text-align: left;&quot;&gt;&lt;span style=&quot;background-color: initial;&quot;&gt;&lt;span style=&quot;font-size: 19px;&quot;&gt;&amp;nbsp; &amp;nbsp; &amp;nbsp; &amp;nbsp; &amp;nbsp; &amp;nbsp; &amp;nbsp; &amp;nbsp; &amp;nbsp; &amp;nbsp;5-- potencia (x&lt;/span&gt;&lt;font face=&quot;Google Sans, Arial, sans-serif&quot;&gt;&lt;span style=&quot;font-size: 20px;&quot;&gt;**y)&lt;/span&gt;&lt;/font&gt;&lt;/span&gt;&lt;/div&gt;&lt;div style=&quot;text-align: left;&quot;&gt;&lt;span style=&quot;background-color: initial;&quot;&gt;&lt;font face=&quot;Google Sans, Arial, sans-serif&quot;&gt;&lt;span style=&quot;font-size: 20px;&quot;&gt;&amp;nbsp; &amp;nbsp; &amp;nbsp; &amp;nbsp; &amp;nbsp; &amp;nbsp; &amp;nbsp; &amp;nbsp; &amp;nbsp; &lt;/span&gt;&lt;/font&gt;&lt;span style=&quot;font-size: 19px;&quot;&gt;6-- logaritmo (Logxy)&lt;/span&gt;&lt;/span&gt;&lt;/div&gt;&lt;span style=&quot;font-size: 19px;&quot;&gt;&lt;font color=&quot;#000000&quot;&gt;-------------------------------------------------&lt;/font&gt;&lt;/span&gt;&lt;/font&gt;" style="shape=document;whiteSpace=wrap;html=1;boundedLbl=1;fillColor=#60a917;fontColor=#ffffff;strokeColor=#2D7600;" parent="1" vertex="1">
                    <mxGeometry x="225" y="-80" width="350" height="310" as="geometry"/>
                </mxCell>
                <mxCell id="8" style="edgeStyle=none;html=1;exitX=0.5;exitY=1;exitDx=0;exitDy=0;entryX=0.5;entryY=0;entryDx=0;entryDy=0;" parent="1" source="5" target="7" edge="1">
                    <mxGeometry relative="1" as="geometry"/>
                </mxCell>
                <mxCell id="5" value="x,y" style="shape=parallelogram;perimeter=parallelogramPerimeter;whiteSpace=wrap;html=1;fixedSize=1;fillColor=#0050ef;fontColor=#ffffff;strokeColor=#001DBC;" parent="1" vertex="1">
                    <mxGeometry x="360" y="240" width="120" height="60" as="geometry"/>
                </mxCell>
                <mxCell id="6" value="" style="endArrow=none;html=1;entryX=0.55;entryY=0.838;entryDx=0;entryDy=0;entryPerimeter=0;exitX=0.5;exitY=0;exitDx=0;exitDy=0;" parent="1" source="5" target="3" edge="1">
                    <mxGeometry width="50" height="50" relative="1" as="geometry">
                        <mxPoint x="265" y="280" as="sourcePoint"/>
                        <mxPoint x="315" y="230" as="targetPoint"/>
                    </mxGeometry>
                </mxCell>
                <mxCell id="10" value="" style="edgeStyle=none;html=1;" parent="1" source="7" target="9" edge="1">
                    <mxGeometry relative="1" as="geometry"/>
                </mxCell>
                <mxCell id="7" value="opcion" style="shape=parallelogram;perimeter=parallelogramPerimeter;whiteSpace=wrap;html=1;fixedSize=1;fillColor=#a20025;fontColor=#ffffff;strokeColor=#6F0000;" parent="1" vertex="1">
                    <mxGeometry x="361" y="340" width="119" height="50" as="geometry"/>
                </mxCell>
                <mxCell id="12" style="edgeStyle=none;html=1;exitX=1;exitY=0.5;exitDx=0;exitDy=0;entryX=0.5;entryY=0;entryDx=0;entryDy=0;" parent="1" source="9" target="11" edge="1">
                    <mxGeometry relative="1" as="geometry">
                        <mxPoint x="530" y="500" as="targetPoint"/>
                        <Array as="points">
                            <mxPoint x="620" y="485"/>
                        </Array>
                    </mxGeometry>
                </mxCell>
                <mxCell id="14" style="edgeStyle=none;html=1;exitX=0;exitY=0.5;exitDx=0;exitDy=0;entryX=0.5;entryY=0;entryDx=0;entryDy=0;" parent="1" source="9" target="128" edge="1">
                    <mxGeometry relative="1" as="geometry">
                        <mxPoint x="240" y="610" as="targetPoint"/>
                        <Array as="points">
                            <mxPoint x="275" y="485"/>
                        </Array>
                    </mxGeometry>
                </mxCell>
                <mxCell id="9" value="opcion == 1" style="rhombus;whiteSpace=wrap;html=1;fillColor=#1ba1e2;fontColor=#ffffff;strokeColor=#006EAF;" parent="1" vertex="1">
                    <mxGeometry x="355.5" y="420" width="130" height="130" as="geometry"/>
                </mxCell>
                <mxCell id="11" value="r = (x+y)" style="rounded=1;whiteSpace=wrap;html=1;fillColor=#1ba1e2;fontColor=#ffffff;strokeColor=#006EAF;" parent="1" vertex="1">
                    <mxGeometry x="560" y="530" width="120" height="60" as="geometry"/>
                </mxCell>
                <mxCell id="130" style="edgeStyle=none;html=1;exitX=1;exitY=0.5;exitDx=0;exitDy=0;entryX=0.5;entryY=0;entryDx=0;entryDy=0;" parent="1" source="128" target="129" edge="1">
                    <mxGeometry relative="1" as="geometry">
                        <mxPoint x="430" y="520" as="targetPoint"/>
                        <Array as="points">
                            <mxPoint x="420" y="595"/>
                        </Array>
                    </mxGeometry>
                </mxCell>
                <mxCell id="132" value="" style="edgeStyle=none;html=1;entryX=0.5;entryY=0;entryDx=0;entryDy=0;" parent="1" source="128" target="131" edge="1">
                    <mxGeometry relative="1" as="geometry">
                        <Array as="points">
                            <mxPoint x="125" y="595"/>
                        </Array>
                    </mxGeometry>
                </mxCell>
                <mxCell id="128" value="opcion == 2" style="rhombus;whiteSpace=wrap;html=1;fillColor=#fa6800;fontColor=#000000;strokeColor=#C73500;" parent="1" vertex="1">
                    <mxGeometry x="210" y="530" width="130" height="130" as="geometry"/>
                </mxCell>
                <mxCell id="165" style="edgeStyle=none;html=1;exitX=0.5;exitY=1;exitDx=0;exitDy=0;fontSize=29;fontColor=#000000;" edge="1" parent="1" source="129">
                    <mxGeometry relative="1" as="geometry">
                        <mxPoint x="420.66666666666674" y="1280" as="targetPoint"/>
                    </mxGeometry>
                </mxCell>
                <mxCell id="129" value="r = (x-y)" style="rounded=1;whiteSpace=wrap;html=1;fillColor=#fa6800;fontColor=#000000;strokeColor=#C73500;" parent="1" vertex="1">
                    <mxGeometry x="360" y="640" width="120" height="60" as="geometry"/>
                </mxCell>
                <mxCell id="134" style="edgeStyle=none;html=1;exitX=1;exitY=0.5;exitDx=0;exitDy=0;entryX=0.5;entryY=0;entryDx=0;entryDy=0;" parent="1" source="131" target="133" edge="1">
                    <mxGeometry relative="1" as="geometry">
                        <mxPoint x="320" y="615" as="targetPoint"/>
                        <Array as="points">
                            <mxPoint x="270" y="705"/>
                        </Array>
                    </mxGeometry>
                </mxCell>
                <mxCell id="138" value="" style="edgeStyle=none;html=1;entryX=0.5;entryY=0;entryDx=0;entryDy=0;" parent="1" source="131" target="137" edge="1">
                    <mxGeometry relative="1" as="geometry">
                        <Array as="points">
                            <mxPoint x="-35" y="705"/>
                        </Array>
                    </mxGeometry>
                </mxCell>
                <mxCell id="131" value="opcion == 3" style="rhombus;whiteSpace=wrap;html=1;fillColor=#647687;fontColor=#ffffff;strokeColor=#314354;" parent="1" vertex="1">
                    <mxGeometry x="60" y="640" width="130" height="130" as="geometry"/>
                </mxCell>
                <mxCell id="166" style="edgeStyle=none;html=1;exitX=0.5;exitY=1;exitDx=0;exitDy=0;fontSize=29;fontColor=#000000;" edge="1" parent="1" source="133">
                    <mxGeometry relative="1" as="geometry">
                        <mxPoint x="270" y="1280" as="targetPoint"/>
                    </mxGeometry>
                </mxCell>
                <mxCell id="133" value="r = (x*y)" style="rounded=1;whiteSpace=wrap;html=1;fillColor=#647687;fontColor=#ffffff;strokeColor=#314354;" parent="1" vertex="1">
                    <mxGeometry x="210" y="770" width="120" height="60" as="geometry"/>
                </mxCell>
                <mxCell id="141" style="edgeStyle=none;html=1;exitX=1;exitY=0.5;exitDx=0;exitDy=0;entryX=0.5;entryY=0;entryDx=0;entryDy=0;" parent="1" source="137" target="140" edge="1">
                    <mxGeometry relative="1" as="geometry">
                        <mxPoint x="170" y="820" as="targetPoint"/>
                        <Array as="points">
                            <mxPoint x="90" y="815"/>
                        </Array>
                    </mxGeometry>
                </mxCell>
                <mxCell id="143" value="" style="edgeStyle=none;html=1;entryX=0.5;entryY=0;entryDx=0;entryDy=0;" parent="1" source="137" target="144" edge="1">
                    <mxGeometry relative="1" as="geometry">
                        <mxPoint x="-202.5" y="870" as="targetPoint"/>
                        <Array as="points">
                            <mxPoint x="-195" y="815"/>
                        </Array>
                    </mxGeometry>
                </mxCell>
                <mxCell id="137" value="opcion == 4" style="rhombus;whiteSpace=wrap;html=1;fillColor=#76608a;fontColor=#ffffff;strokeColor=#432D57;" parent="1" vertex="1">
                    <mxGeometry x="-100" y="750" width="130" height="130" as="geometry"/>
                </mxCell>
                <mxCell id="167" style="edgeStyle=none;html=1;exitX=0.5;exitY=1;exitDx=0;exitDy=0;fontSize=29;fontColor=#000000;" edge="1" parent="1" source="140">
                    <mxGeometry relative="1" as="geometry">
                        <mxPoint x="90" y="1280" as="targetPoint"/>
                    </mxGeometry>
                </mxCell>
                <mxCell id="140" value="r = (x/y)&lt;span style=&quot;white-space: pre;&quot;&gt;&#9;&lt;/span&gt;" style="rounded=1;whiteSpace=wrap;html=1;fillColor=#76608a;fontColor=#ffffff;strokeColor=#432D57;" parent="1" vertex="1">
                    <mxGeometry x="30" y="880" width="120" height="60" as="geometry"/>
                </mxCell>
                <mxCell id="146" style="edgeStyle=none;html=1;exitX=1;exitY=0.5;exitDx=0;exitDy=0;entryX=0.5;entryY=0;entryDx=0;entryDy=0;" parent="1" source="144" target="145" edge="1">
                    <mxGeometry relative="1" as="geometry">
                        <mxPoint x="-30" y="925" as="targetPoint"/>
                        <Array as="points">
                            <mxPoint x="-70" y="925"/>
                        </Array>
                    </mxGeometry>
                </mxCell>
                <mxCell id="148" style="edgeStyle=none;html=1;entryX=0.5;entryY=0;entryDx=0;entryDy=0;" edge="1" parent="1" source="144" target="147">
                    <mxGeometry relative="1" as="geometry">
                        <mxPoint x="-410" y="925" as="targetPoint"/>
                        <Array as="points">
                            <mxPoint x="-365" y="925"/>
                        </Array>
                    </mxGeometry>
                </mxCell>
                <mxCell id="144" value="opcion == 5" style="rhombus;whiteSpace=wrap;html=1;fillColor=#e3c800;fontColor=#000000;strokeColor=#B09500;" parent="1" vertex="1">
                    <mxGeometry x="-260" y="860" width="130" height="130" as="geometry"/>
                </mxCell>
                <mxCell id="168" style="edgeStyle=none;html=1;exitX=0.5;exitY=1;exitDx=0;exitDy=0;fontSize=29;fontColor=#000000;" edge="1" parent="1" source="145">
                    <mxGeometry relative="1" as="geometry">
                        <mxPoint x="-70" y="1280" as="targetPoint"/>
                    </mxGeometry>
                </mxCell>
                <mxCell id="145" value="r = (x**y)" style="rounded=1;whiteSpace=wrap;html=1;fillColor=#e3c800;fontColor=#000000;strokeColor=#B09500;" parent="1" vertex="1">
                    <mxGeometry x="-130" y="980" width="120" height="60" as="geometry"/>
                </mxCell>
                <mxCell id="152" style="edgeStyle=none;html=1;exitX=1;exitY=0.5;exitDx=0;exitDy=0;entryX=0.5;entryY=0;entryDx=0;entryDy=0;" edge="1" parent="1" source="147" target="151">
                    <mxGeometry relative="1" as="geometry">
                        <mxPoint x="-190" y="1025" as="targetPoint"/>
                        <Array as="points">
                            <mxPoint x="-240" y="1025"/>
                        </Array>
                    </mxGeometry>
                </mxCell>
                <mxCell id="155" style="edgeStyle=none;html=1;exitX=0;exitY=0.5;exitDx=0;exitDy=0;entryX=0.5;entryY=0;entryDx=0;entryDy=0;" edge="1" parent="1" source="147" target="154">
                    <mxGeometry relative="1" as="geometry">
                        <mxPoint x="-530" y="1025" as="targetPoint"/>
                        <Array as="points">
                            <mxPoint x="-520" y="1025"/>
                        </Array>
                    </mxGeometry>
                </mxCell>
                <mxCell id="147" value="opcion == 6" style="rhombus;whiteSpace=wrap;html=1;fillColor=#fad7ac;strokeColor=#b46504;fontColor=#000000;" parent="1" vertex="1">
                    <mxGeometry x="-430" y="960" width="130" height="130" as="geometry"/>
                </mxCell>
                <mxCell id="169" style="edgeStyle=none;html=1;exitX=0.5;exitY=1;exitDx=0;exitDy=0;fontSize=29;fontColor=#000000;" edge="1" parent="1" source="151">
                    <mxGeometry relative="1" as="geometry">
                        <mxPoint x="-239.33333333333326" y="1280" as="targetPoint"/>
                    </mxGeometry>
                </mxCell>
                <mxCell id="151" value="r = (Logx)" style="rounded=1;whiteSpace=wrap;html=1;fillColor=#fad9d5;strokeColor=#ae4132;fontColor=#000000;" vertex="1" parent="1">
                    <mxGeometry x="-300" y="1090" width="120" height="60" as="geometry"/>
                </mxCell>
                <mxCell id="154" value="r = &quot;No valido&quot;" style="rounded=1;whiteSpace=wrap;html=1;fillColor=#bac8d3;strokeColor=#23445d;fontColor=#000000;" vertex="1" parent="1">
                    <mxGeometry x="-580" y="1109" width="120" height="60" as="geometry"/>
                </mxCell>
                <mxCell id="159" value="" style="endArrow=none;html=1;entryX=0.5;entryY=1;entryDx=0;entryDy=0;" edge="1" parent="1" target="154">
                    <mxGeometry width="50" height="50" relative="1" as="geometry">
                        <mxPoint x="-520" y="1280" as="sourcePoint"/>
                        <mxPoint x="-495" y="1200" as="targetPoint"/>
                    </mxGeometry>
                </mxCell>
                <mxCell id="160" value="" style="endArrow=none;html=1;entryX=0.5;entryY=1;entryDx=0;entryDy=0;" edge="1" parent="1" target="11">
                    <mxGeometry width="50" height="50" relative="1" as="geometry">
                        <mxPoint x="620" y="1280" as="sourcePoint"/>
                        <mxPoint x="640" y="630" as="targetPoint"/>
                    </mxGeometry>
                </mxCell>
                <mxCell id="161" value="" style="endArrow=none;html=1;" edge="1" parent="1">
                    <mxGeometry width="50" height="50" relative="1" as="geometry">
                        <mxPoint x="-520" y="1280" as="sourcePoint"/>
                        <mxPoint y="1280" as="targetPoint"/>
                    </mxGeometry>
                </mxCell>
                <mxCell id="162" value="" style="endArrow=none;html=1;" edge="1" parent="1">
                    <mxGeometry width="50" height="50" relative="1" as="geometry">
                        <mxPoint x="-10" y="1280" as="sourcePoint"/>
                        <mxPoint x="620" y="1280" as="targetPoint"/>
                    </mxGeometry>
                </mxCell>
                <mxCell id="170" value="" style="endArrow=none;html=1;fontSize=29;fontColor=#000000;exitX=0.5;exitY=0;exitDx=0;exitDy=0;" edge="1" parent="1" source="172">
                    <mxGeometry width="50" height="50" relative="1" as="geometry">
                        <mxPoint y="1400" as="sourcePoint"/>
                        <mxPoint y="1280" as="targetPoint"/>
                    </mxGeometry>
                </mxCell>
                <mxCell id="172" value="r" style="shape=document;whiteSpace=wrap;html=1;boundedLbl=1;labelBackgroundColor=none;fontSize=29;fontColor=#ffffff;fillColor=#e51400;strokeColor=#B20000;" vertex="1" parent="1">
                    <mxGeometry x="-60" y="1360" width="120" height="80" as="geometry"/>
                </mxCell>
                <mxCell id="173" value="fin" style="ellipse;whiteSpace=wrap;html=1;labelBackgroundColor=none;fontSize=29;fontColor=#ffffff;fillColor=#a0522d;strokeColor=#6D1F00;" vertex="1" parent="1">
                    <mxGeometry x="-60" y="1490" width="120" height="80" as="geometry"/>
                </mxCell>
                <mxCell id="175" value="" style="endArrow=none;html=1;fontSize=29;fontColor=#000000;entryX=0.492;entryY=0.875;entryDx=0;entryDy=0;entryPerimeter=0;exitX=0.5;exitY=0;exitDx=0;exitDy=0;" edge="1" parent="1" source="173" target="172">
                    <mxGeometry width="50" height="50" relative="1" as="geometry">
                        <mxPoint x="70" y="1500" as="sourcePoint"/>
                        <mxPoint x="120" y="1450" as="targetPoint"/>
                    </mxGeometry>
                </mxCell>
            </root>
        </mxGraphModel>
    </diagram>
</mxfile>